<svg aria-hidden="true" style="position: absolute; width: 0; height: 0;" width="0" height="0" version="1.1" xmlns="http://www.w3.org/2000/svg">
<defs>
<!-- Interface -->
<symbol id="icon-menu" viewBox="0 0 448 512">
	<path d="M436 124H12c-6.627 0-12-5.373-12-12V80c0-6.627 5.373-12 12-12h424c6.627 0 12 5.373 12 12v32c0 6.627-5.373 12-12 12zm0 160H12c-6.627 0-12-5.373-12-12v-32c0-6.627 5.373-12 12-12h424c6.627 0 12 5.373 12 12v32c0 6.627-5.373 12-12 12zm0 160H12c-6.627 0-12-5.373-12-12v-32c0-6.627 5.373-12 12-12h424c6.627 0 12 5.373 12 12v32c0 6.627-5.373 12-12 12z"/>
</symbol>
<symbol id="icon-search" viewBox="0 0 512 512">
	<path d="M508.5 468.9L387.1 347.5c-2.3-2.3-5.3-3.5-8.5-3.5h-13.2c31.5-36.5 50.6-84 50.6-136C416 93.1 322.9 0 208 0S0 93.1 0 208s93.1 208 208 208c52 0 99.5-19.1 136-50.6v13.2c0 3.2 1.3 6.2 3.5 8.5l121.4 121.4c4.7 4.7 12.3 4.7 17 0l22.6-22.6c4.7-4.7 4.7-12.3 0-17zM208 368c-88.4 0-160-71.6-160-160S119.6 48 208 48s160 71.6 160 160-71.6 160-160 160z"/>
</symbol>
<symbol id="icon-search-menu" viewBox="0 0 777 512">
	<path d="M773.8,468.9c4.3,4,3.8,13.5,0,17-8.4,5.5-29.2,37.1-40,22l-121.9-120.8c-4.9-4.3-2.4-16.4-3-22-93,85.1-255.7,59.3-315.4-52C188.1,129.8,392.9-76.8,577.2,28.6c111.4,61.5,138,221.4,52.9,315.4,5.6.6,17.8-1.8,22,3l121.9,121.9h-.2ZM473.4,368c119.3,3.5,201-137.2,137.8-239.6-60.2-105.9-216.8-104.7-276.5,0-61.1,104.4,17,242.2,138.7,239.6h0Z"/>
	<path d="M206.2,370.2H29c-16,0-28.9,11.5-28.9,25.5s12.9,25.5,28.9,25.5h177.2c16,0,28.9-11.5,28.9-25.5s-12.9-25.5-28.9-25.5h0Z"/>
	<path d="M29,64h177.2c16,0,28.9-11.4,28.9-25.5s-12.9-25.5-28.9-25.5H29C13.1,13,.2,24.4.2,38.5s12.9,25.5,28.9,25.5Z"/>
	<path d="M29,242.7h101.3c16,0,28.9-11.4,28.9-25.5s-12.9-25.5-28.9-25.5H29c-16,0-28.9,11.5-28.9,25.5s12.9,25.5,28.9,25.5h0Z"/>
</symbol>
<symbol id="icon-close" viewBox="0 0 332.5 332.5">
	<path d="M191.7,166.2L328.9,29c4.7-4.7,4.7-12.3,0-17l-8.5-8.5c-4.7-4.7-12.3-4.7-17,0l-137.2,137.2L29,3.6c-4.7-4.7-12.3-4.7-17,0L3.5,12.1c-4.7,4.7-4.7,12.3,0,17l137.2,137.1L3.6,303.4c-4.7,4.7-4.7,12.3,0,17l8.5,8.5c4.7,4.7,12.3,4.7,17,0l137.1-137.2,137.2,137.2c4.7,4.7,12.3,4.7,17,0l8.5-8.5c4.7-4.7,4.7-12.3,0-17l-137.2-137.2Z"/>
</symbol>
<symbol id="icon-refresh" viewBox="0 0 512 512">
	<path d="M12 8h27.711c6.739 0 12.157 5.548 11.997 12.286l-2.347 98.568C93.925 51.834 170.212 7.73 256.793 8.001 393.18 8.428 504.213 120.009 504 256.396 503.786 393.181 392.835 504 256 504c-63.926 0-122.202-24.187-166.178-63.908-5.113-4.618-5.354-12.561-.482-17.433l19.738-19.738c4.498-4.498 11.753-4.785 16.501-.552C160.213 433.246 205.895 452 256 452c108.322 0 196-87.662 196-196 0-108.322-87.662-196-196-196-79.545 0-147.941 47.282-178.675 115.302l126.389-3.009c6.737-.16 12.286 5.257 12.286 11.997V212c0 6.627-5.373 12-12 12H12c-6.627 0-12-5.373-12-12V20C0 13.373 5.373 8 12 8z"/>
</symbol>
<symbol id="icon-check" viewBox="0 0 512 512">
	<path d="M435.848 83.466L172.804 346.51l-96.652-96.652c-4.686-4.686-12.284-4.686-16.971 0l-28.284 28.284c-4.686 4.686-4.686 12.284 0 16.971l133.421 133.421c4.686 4.686 12.284 4.686 16.971 0l299.813-299.813c4.686-4.686 4.686-12.284 0-16.971l-28.284-28.284c-4.686-4.686-12.284-4.686-16.97 0z"/>
</symbol>
<symbol id="icon-map-pin" viewBox="0 0 384 512">
	<path d="M172.268 501.67C26.97 291.031 0 269.413 0 192 0 85.961 85.961 0 192 0s192 85.961 192 192c0 77.413-26.97 99.031-172.268 309.67-9.535 13.774-29.93 13.773-39.464 0zM192 272c44.183 0 80-35.817 80-80s-35.817-80-80-80-80 35.817-80 80 35.817 80 80 80z"/>
</symbol>
<symbol id="icon-plus" viewBox="0 0 448 512">
	<path d="M436 228H252V44c0-6.6-5.4-12-12-12h-32c-6.6 0-12 5.4-12 12v184H12c-6.6 0-12 5.4-12 12v32c0 6.6 5.4 12 12 12h184v184c0 6.6 5.4 12 12 12h32c6.6 0 12-5.4 12-12V284h184c6.6 0 12-5.4 12-12v-32c0-6.6-5.4-12-12-12z"/>
</symbol>
<symbol id="icon-minus" viewBox="0 0 448 512">
	<path d="M436 284c6.6 0 12-5.4 12-12v-32c0-6.6-5.4-12-12-12H12c-6.6 0-12 5.4-12 12v32c0 6.6 5.4 12 12 12h424z"/>
</symbol>
<symbol id="icon-user" viewBox="0 0 512 512">
	<path d="M423.309 291.025L402.221 285C431.798 243.89 436 202.294 436 180 436 80.649 355.484 0 256 0 156.649 0 76 80.516 76 180c0 22.299 4.198 63.884 33.779 105l-21.088 6.025C21.28 310.285 0 371.59 0 408.605v25.681C0 477.138 34.862 512 77.714 512h356.571C477.138 512 512 477.138 512 434.286v-25.681c0-36.247-20.725-98.161-88.691-117.58zM256 48c72.902 0 132 59.099 132 132s-59.098 132-132 132-132-59.099-132-132S183.098 48 256 48zm208 386.286c0 16.41-13.304 29.714-29.714 29.714H77.714C61.304 464 48 450.696 48 434.286v-25.681c0-33.167 21.987-62.316 53.878-71.427l46.103-13.172C162.683 335.058 200.427 360 256 360s93.317-24.942 108.019-35.994l46.103 13.172C442.013 346.29 464 375.438 464 408.605v25.681z"/>
</symbol>
<symbol id="icon-calendar" viewBox="0 0 448 512">
	<path d="M148 288h-40c-6.6 0-12-5.4-12-12v-40c0-6.6 5.4-12 12-12h40c6.6 0 12 5.4 12 12v40c0 6.6-5.4 12-12 12zm108-12v-40c0-6.6-5.4-12-12-12h-40c-6.6 0-12 5.4-12 12v40c0 6.6 5.4 12 12 12h40c6.6 0 12-5.4 12-12zm96 0v-40c0-6.6-5.4-12-12-12h-40c-6.6 0-12 5.4-12 12v40c0 6.6 5.4 12 12 12h40c6.6 0 12-5.4 12-12zm-96 96v-40c0-6.6-5.4-12-12-12h-40c-6.6 0-12 5.4-12 12v40c0 6.6 5.4 12 12 12h40c6.6 0 12-5.4 12-12zm-96 0v-40c0-6.6-5.4-12-12-12h-40c-6.6 0-12 5.4-12 12v40c0 6.6 5.4 12 12 12h40c6.6 0 12-5.4 12-12zm192 0v-40c0-6.6-5.4-12-12-12h-40c-6.6 0-12 5.4-12 12v40c0 6.6 5.4 12 12 12h40c6.6 0 12-5.4 12-12zm96-260v352c0 26.5-21.5 48-48 48H48c-26.5 0-48-21.5-48-48V112c0-26.5 21.5-48 48-48h48V12c0-6.6 5.4-12 12-12h40c6.6 0 12 5.4 12 12v52h128V12c0-6.6 5.4-12 12-12h40c6.6 0 12 5.4 12 12v52h48c26.5 0 48 21.5 48 48zm-48 346V160H48v298c0 3.3 2.7 6 6 6h340c3.3 0 6-2.7 6-6z"/>
</symbol>
<symbol id="icon-calendar-add" viewBox="0 0 448 512">
	<path d="M336 292v24c0 6.6-5.4 12-12 12h-76v76c0 6.6-5.4 12-12 12h-24c-6.6 0-12-5.4-12-12v-76h-76c-6.6 0-12-5.4-12-12v-24c0-6.6 5.4-12 12-12h76v-76c0-6.6 5.4-12 12-12h24c6.6 0 12 5.4 12 12v76h76c6.6 0 12 5.4 12 12zm112-180v352c0 26.5-21.5 48-48 48H48c-26.5 0-48-21.5-48-48V112c0-26.5 21.5-48 48-48h48V12c0-6.6 5.4-12 12-12h40c6.6 0 12 5.4 12 12v52h128V12c0-6.6 5.4-12 12-12h40c6.6 0 12 5.4 12 12v52h48c26.5 0 48 21.5 48 48zm-48 346V160H48v298c0 3.3 2.7 6 6 6h340c3.3 0 6-2.7 6-6z"/>
</symbol>
<symbol id="icon-envelope" viewBox="0 0 512 512">
	<path d="M464 64H48C21.49 64 0 85.49 0 112v288c0 26.51 21.49 48 48 48h416c26.51 0 48-21.49 48-48V112c0-26.51-21.49-48-48-48zm0 48v40.805c-22.422 18.259-58.168 46.651-134.587 106.49-16.841 13.247-50.201 45.072-73.413 44.701-23.208.375-56.579-31.459-73.413-44.701C106.18 199.465 70.425 171.067 48 152.805V112h416zM48 400V214.398c22.914 18.251 55.409 43.862 104.938 82.646 21.857 17.205 60.134 55.186 103.062 54.955 42.717.231 80.509-37.199 103.053-54.947 49.528-38.783 82.032-64.401 104.947-82.653V400H48z"/>
</symbol>
<symbol id="icon-download" viewBox="0 0 576 512">
	<path d="M528 288h-92.1l46.1-46.1c30.1-30.1 8.8-81.9-33.9-81.9h-64V48c0-26.5-21.5-48-48-48h-96c-26.5 0-48 21.5-48 48v112h-64c-42.6 0-64.2 51.7-33.9 81.9l46.1 46.1H48c-26.5 0-48 21.5-48 48v128c0 26.5 21.5 48 48 48h480c26.5 0 48-21.5 48-48V336c0-26.5-21.5-48-48-48zm-400-80h112V48h96v160h112L288 368 128 208zm400 256H48V336h140.1l65.9 65.9c18.8 18.8 49.1 18.7 67.9 0l65.9-65.9H528v128zm-88-64c0-13.3 10.7-24 24-24s24 10.7 24 24-10.7 24-24 24-24-10.7-24-24z"/>
</symbol>
<symbol id="icon-home" viewBox="0 0 576 512">
	<path d="M488 312.7V456c0 13.3-10.7 24-24 24H348c-6.6 0-12-5.4-12-12V356c0-6.6-5.4-12-12-12h-72c-6.6 0-12 5.4-12 12v112c0 6.6-5.4 12-12 12H112c-13.3 0-24-10.7-24-24V312.7c0-3.6 1.6-7 4.4-9.3l188-154.8c4.4-3.6 10.8-3.6 15.3 0l188 154.8c2.7 2.3 4.3 5.7 4.3 9.3zm83.6-60.9L488 182.9V44.4c0-6.6-5.4-12-12-12h-56c-6.6 0-12 5.4-12 12V117l-89.5-73.7c-17.7-14.6-43.3-14.6-61 0L4.4 251.8c-5.1 4.2-5.8 11.8-1.6 16.9l25.5 31c4.2 5.1 11.8 5.8 16.9 1.6l235.2-193.7c4.4-3.6 10.8-3.6 15.3 0l235.2 193.7c5.1 4.2 12.7 3.5 16.9-1.6l25.5-31c4.2-5.2 3.4-12.7-1.7-16.9z"/>
</symbol>
<symbol id="icon-clock" viewBox="0 0 512 512">
	<path d="M256 8C119 8 8 119 8 256s111 248 248 248 248-111 248-248S393 8 256 8zm0 448c-110.5 0-200-89.5-200-200S145.5 56 256 56s200 89.5 200 200-89.5 200-200 200zm61.8-104.4l-84.9-61.7c-3.1-2.3-4.9-5.9-4.9-9.7V116c0-6.6 5.4-12 12-12h32c6.6 0 12 5.4 12 12v141.7l66.8 48.6c5.4 3.9 6.5 11.4 2.6 16.8L334.6 349c-3.9 5.3-11.4 6.5-16.8 2.6z"/>
</symbol>
<symbol id="icon-history" viewBox="0 0 512 512">
	<path d="M504 255.532c.252 136.64-111.182 248.372-247.822 248.468-64.014.045-122.373-24.163-166.394-63.942-5.097-4.606-5.3-12.543-.443-17.4l16.96-16.96c4.529-4.529 11.776-4.659 16.555-.395C158.208 436.843 204.848 456 256 456c110.549 0 200-89.468 200-200 0-110.549-89.468-200-200-200-55.52 0-105.708 22.574-141.923 59.043l49.091 48.413c7.641 7.535 2.305 20.544-8.426 20.544H26.412c-6.627 0-12-5.373-12-12V45.443c0-10.651 12.843-16.023 20.426-8.544l45.097 44.474C124.866 36.067 187.15 8 256 8c136.811 0 247.747 110.781 248 247.532zm-167.058 90.173l14.116-19.409c3.898-5.36 2.713-12.865-2.647-16.763L280 259.778V116c0-6.627-5.373-12-12-12h-24c-6.627 0-12 5.373-12 12v168.222l88.179 64.13c5.36 3.897 12.865 2.712 16.763-2.647z"/>
</symbol>
<symbol id="icon-external-link" viewBox="0 0 576 512">
	<path d="M576 24v127.984c0 21.461-25.96 31.98-40.971 16.971l-35.707-35.709-243.523 243.523c-9.373 9.373-24.568 9.373-33.941 0l-22.627-22.627c-9.373-9.373-9.373-24.569 0-33.941L442.756 76.676l-35.703-35.705C391.982 25.9 402.656 0 424.024 0H552c13.255 0 24 10.745 24 24zM407.029 270.794l-16 16A23.999 23.999 0 0 0 384 303.765V448H64V128h264a24.003 24.003 0 0 0 16.97-7.029l16-16C376.089 89.851 365.381 64 344 64H48C21.49 64 0 85.49 0 112v352c0 26.51 21.49 48 48 48h352c26.51 0 48-21.49 48-48V287.764c0-21.382-25.852-32.09-40.971-16.97z"/>
</symbol>
<symbol id="icon-lock" viewBox="0 0 448 512">
	<path d="M400 224h-24v-72C376 68.2 307.8 0 224 0S72 68.2 72 152v72H48c-26.5 0-48 21.5-48 48v192c0 26.5 21.5 48 48 48h352c26.5 0 48-21.5 48-48V272c0-26.5-21.5-48-48-48zM264 392c0 22.1-17.9 40-40 40s-40-17.9-40-40v-48c0-22.1 17.9-40 40-40s40 17.9 40 40v48zm32-168H152v-72c0-39.7 32.3-72 72-72s72 32.3 72 72v72z"/>
</symbol>
<symbol id="icon-play" viewBox="0 0 448 512">
	<path d="M424.4 214.7L72.4 6.6C43.8-10.3 0 6.1 0 47.9V464c0 37.5 40.7 60.1 72.4 41.3l352-208c31.4-18.5 31.5-64.1 0-82.6z"/>
</symbol>
<symbol id="icon-feed" viewBox="0 0 448 512">
	<path d="M128.081 415.959c0 35.369-28.672 64.041-64.041 64.041S0 451.328 0 415.959s28.672-64.041 64.041-64.041 64.04 28.673 64.04 64.041zm175.66 47.25c-8.354-154.6-132.185-278.587-286.95-286.95C7.656 175.765 0 183.105 0 192.253v48.069c0 8.415 6.49 15.472 14.887 16.018 111.832 7.284 201.473 96.702 208.772 208.772.547 8.397 7.604 14.887 16.018 14.887h48.069c9.149.001 16.489-7.655 15.995-16.79zm144.249.288C439.596 229.677 251.465 40.445 16.503 32.01 7.473 31.686 0 38.981 0 48.016v48.068c0 8.625 6.835 15.645 15.453 15.999 191.179 7.839 344.627 161.316 352.465 352.465.353 8.618 7.373 15.453 15.999 15.453h48.068c9.034-.001 16.329-7.474 16.005-16.504z"/>
</symbol>
<symbol id="icon-mode" viewBox="0 0 512 512">
	<path d="M512,256C512,114.6,397.4,0,256,0S0,114.6,0,256s114.6,256,256,256,32.8-1.6,48.5-4.6c21.4,0,14.5,0,.2,0,118.1-22.8,207.2-126.6,207.2-251.3ZM483.4,256c0,121.4-95.6,220.6-215.5,226.8V29.2c119.8,6.3,215.5,105.5,215.5,226.8Z"/>
</symbol>

<!-- Arrows -->
<symbol id="icon-box-arrow-up" viewBox="0 0 365 512">
	<path d="M314.3,176.9h-61.5c-6.9,0-12.6,5.6-12.6,12.6v17.1c0,6.9,5.6,12.6,12.6,12.6h61.5c4.5,0,8.1,3.7,8.1,8.1v234.3c0,4.5-3.7,8.1-8.1,8.1H50.7c-4.5,0-8.1-3.7-8.1-8.1v-234.3c0-4.5,3.7-8.1,8.1-8.1h62c6.9,0,12.6-5.6,12.6-12.6v-17.1c0-6.9-5.6-12.6-12.6-12.6h-62C22.9,176.9.3,199.5.3,227.3v234.3c0,27.8,22.6,50.4,50.4,50.4h263.6c27.8,0,50.4-22.6,50.4-50.4v-234.3c0-27.8-22.6-50.4-50.4-50.4Z"/>
	<path d="M63.7,133.8l11.5,11.5c2.1,2.1,4.5,3,7.7,3s6.8-1.6,8.2-3l76.6-76.6v232c0,3.7,2.5,6.6,3.5,7.7,1.1,1.1,3.9,3.5,7.7,3.5h15.3c3,0,5.9-1.3,8.2-3.5h0c1.9-2,2.9-4.8,2.9-7.7V68.7l76.6,76.6.3.3.4.2c1.9,1.3,3.9,2.4,7.5,2.4s5.6-.9,7.7-3l11.2-11.2.3-.4c1.3-1.9,2.4-3.9,2.4-7.5s-.9-5.6-3-7.7L194.4,4.7c-1.9-2.4-4.7-3.8-7.9-3.8s-5,.8-7.5,2.4l-.4.3-114.4,114.9c-1.9,1.9-3,4.7-3,7.7s.6,4.6,2,6.9l.4.7Z"/>
</symbol>
<symbol id="icon-arrow-right" viewBox="0 0 448 512">
	<path d="M218.101 38.101L198.302 57.9c-4.686 4.686-4.686 12.284 0 16.971L353.432 230H12c-6.627 0-12 5.373-12 12v28c0 6.627 5.373 12 12 12h341.432l-155.13 155.13c-4.686 4.686-4.686 12.284 0 16.971l19.799 19.799c4.686 4.686 12.284 4.686 16.971 0l209.414-209.414c4.686-4.686 4.686-12.284 0-16.971L235.071 38.101c-4.686-4.687-12.284-4.687-16.97 0z"/>
</symbol>
<symbol id="icon-arrow-down" viewBox="0 0 448 512">
	<path d="M441.9,250.1l-19.8-19.8c-4.7-4.7-12.3-4.7-17,0l-155.1,155.1V44c0-6.6-5.4-12-12-12h-28c-6.6,0-12,5.4-12,12v341.4L42.9,230.3c-4.7-4.7-12.3-4.7-17,0l-19.8,19.8c-4.7,4.7-4.7,12.3,0,17l209.4,209.4c4.7,4.7,12.3,4.7,17,0l209.4-209.4c4.7-4.7,4.7-12.3,0-17Z"/>
</symbol>
<symbol id="icon-arrow-left" viewBox="0 0 448 512">
	<path d="M229.9 473.899l19.799-19.799c4.686-4.686 4.686-12.284 0-16.971L94.569 282H436c6.627 0 12-5.373 12-12v-28c0-6.627-5.373-12-12-12H94.569l155.13-155.13c4.686-4.686 4.686-12.284 0-16.971L229.9 38.101c-4.686-4.686-12.284-4.686-16.971 0L3.515 247.515c-4.686 4.686-4.686 12.284 0 16.971L212.929 473.9c4.686 4.686 12.284 4.686 16.971-.001z"/>
</symbol>
<symbol id="icon-arrow-up" viewBox="0 0 448 512">
	<path d="M6.101 261.899L25.9 281.698c4.686 4.686 12.284 4.686 16.971 0L198 126.568V468c0 6.627 5.373 12 12 12h28c6.627 0 12-5.373 12-12V126.568l155.13 155.13c4.686 4.686 12.284 4.686 16.971 0l19.799-19.799c4.686-4.686 4.686-12.284 0-16.971L232.485 35.515c-4.686-4.686-12.284-4.686-16.971 0L6.101 244.929c-4.687 4.686-4.687 12.284 0 16.97z"/>
</symbol>
<symbol id="icon-angle-left" viewBox="0 0 192 512">
	<path d="M4.2,247.5L151,99.5c4.7-4.7,12.3-4.7,17,0l19.8,19.8c4.7,4.7,4.7,12.3,0,17l-118.5,119.7,118.5,119.7c4.7,4.7,4.7,12.3,0,17l-19.8,19.8c-4.7,4.7-12.3,4.7-17,0L4.2,264.5c-4.7-4.7-4.7-12.3,0-17Z"/>
</symbol>
<symbol id="icon-angle-right" viewBox="0 0 192 512">
	<path d="M187.8 264.5L41 412.5c-4.7 4.7-12.3 4.7-17 0L4.2 392.7c-4.7-4.7-4.7-12.3 0-17L122.7 256 4.2 136.3c-4.7-4.7-4.7-12.3 0-17L24 99.5c4.7-4.7 12.3-4.7 17 0l146.8 148c4.7 4.7 4.7 12.3 0 17z"/>
</symbol>

<!-- Brands -->
<symbol id="icon-bluesky" viewBox="0 0 600 530">
	<path d="m135.72 44.03c66.496 49.921 138.02 151.14 164.28 205.46 26.262-54.316 97.782-155.54 164.28-205.46 47.98-36.021 125.72-63.892 125.72 24.795 0 17.712-10.155 148.79-16.111 170.07-20.703 73.984-96.144 92.854-163.25 81.433 117.3 19.964 147.14 86.092 82.697 152.22-122.39 125.59-175.91-31.511-189.63-71.766-2.514-7.3797-3.6904-10.832-3.7077-7.8964-0.0174-2.9357-1.1937 0.51669-3.7077 7.8964-13.714 40.255-67.233 197.36-189.63 71.766-64.444-66.128-34.605-132.26 82.697-152.22-67.108 11.421-142.55-7.4491-163.25-81.433-5.9562-21.282-16.111-152.36-16.111-170.07 0-88.687 77.742-60.816 125.72-24.795z"/>
</symbol>
<symbol id="icon-linkedin" viewBox="0 0 448 512">
	<path d="M100.3 480H7.4V180.9h92.9V480zM53.8 140.1C24.1 140.1 0 115.5 0 85.8 0 56.1 24.1 32 53.8 32c29.7 0 53.8 24.1 53.8 53.8 0 29.7-24.1 54.3-53.8 54.3zM448 480h-92.7V334.4c0-34.7-.7-79.2-48.3-79.2-48.3 0-55.7 37.7-55.7 76.7V480h-92.8V180.9h89.1v40.8h1.3c12.4-23.5 42.7-48.3 87.9-48.3 94 0 111.3 61.9 111.3 142.3V480z"/>
</symbol>
<symbol id="icon-twitter-x" viewBox="0 0 1200 1227">
	<path d="M714.163 519.284L1160.89 0H1055.03L667.137 450.887L357.328 0H0L468.492 681.821L0 1226.37H105.866L515.491 750.218L842.672 1226.37H1200L714.137 519.284H714.163ZM569.165 687.828L521.697 619.934L144.011 79.6944H306.615L611.412 515.685L658.88 583.579L1055.08 1150.3H892.476L569.165 687.854V687.828Z"/>
</symbol>
<symbol id="icon-facebook" viewBox="0 0 264 512">
	<path d="M76.7 512V283H0v-91h76.7v-71.7C76.7 42.4 124.3 0 193.8 0c33.3 0 61.9 2.5 70.2 3.6V85h-48.2c-37.8 0-45.1 18-45.1 44.3V192H256l-11.7 91h-73.6v229"/>
</symbol>
<symbol id="icon-google" viewBox="0 0 448 512">
	<path d="M488 261.8C488 403.3 391.1 504 248 504 110.8 504 0 393.2 0 256S110.8 8 248 8c66.8 0 123 24.5 166.3 64.9l-67.5 64.9C258.5 52.6 94.3 116.6 94.3 256c0 86.5 69.1 156.6 153.7 156.6 98.2 0 135-70.4 140.8-106.9H248v-85.3h236.1c2.3 12.7 3.9 24.9 3.9 41.4z"/>
</symbol>
<symbol id="icon-vimeo" viewBox="0 0 448 512">
	<path d="M447.8 153.6c-2 43.6-32.4 103.3-91.4 179.1-60.9 79.2-112.4 118.8-154.6 118.8-26.1 0-48.2-24.1-66.3-72.3C100.3 250 85.3 174.3 56.2 174.3c-3.4 0-15.1 7.1-35.2 21.1L0 168.2c51.6-45.3 100.9-95.7 131.8-98.5 34.9-3.4 56.3 20.5 64.4 71.5 28.7 181.5 41.4 208.9 93.6 126.7 18.7-29.6 28.8-52.1 30.2-67.6 4.8-45.9-35.8-42.8-63.3-31 22-72.1 64.1-107.1 126.2-105.1 45.8 1.2 67.5 31.1 64.9 89.4z"/>
</symbol>
<symbol id="icon-youtube" viewBox="0 0 576 512">
	<path d="M549.655 124.083c-6.281-23.65-24.787-42.276-48.284-48.597C458.781 64 288 64 288 64S117.22 64 74.629 75.486c-23.497 6.322-42.003 24.947-48.284 48.597-11.412 42.867-11.412 132.305-11.412 132.305s0 89.438 11.412 132.305c6.281 23.65 24.787 41.5 48.284 47.821C117.22 448 288 448 288 448s170.78 0 213.371-11.486c23.497-6.321 42.003-24.171 48.284-47.821 11.412-42.867 11.412-132.305 11.412-132.305s0-89.438-11.412-132.305zm-317.51 213.508V175.185l142.739 81.205-142.739 81.201z"/>
</symbol>
<symbol id="icon-instagram" viewBox="0 0 448 512">
	<path d="M224.1 141c-63.6 0-114.9 51.3-114.9 114.9s51.3 114.9 114.9 114.9S339 319.5 339 255.9 287.7 141 224.1 141zm0 189.6c-41.1 0-74.7-33.5-74.7-74.7s33.5-74.7 74.7-74.7 74.7 33.5 74.7 74.7-33.6 74.7-74.7 74.7zm146.4-194.3c0 14.9-12 26.8-26.8 26.8-14.9 0-26.8-12-26.8-26.8s12-26.8 26.8-26.8 26.8 12 26.8 26.8zm76.1 27.2c-1.7-35.9-9.9-67.7-36.2-93.9-26.2-26.2-58-34.4-93.9-36.2-37-2.1-147.9-2.1-184.9 0-35.8 1.7-67.6 9.9-93.9 36.1s-34.4 58-36.2 93.9c-2.1 37-2.1 147.9 0 184.9 1.7 35.9 9.9 67.7 36.2 93.9s58 34.4 93.9 36.2c37 2.1 147.9 2.1 184.9 0 35.9-1.7 67.7-9.9 93.9-36.2 26.2-26.2 34.4-58 36.2-93.9 2.1-37 2.1-147.8 0-184.8zM398.8 388c-7.8 19.6-22.9 34.7-42.6 42.6-29.5 11.7-99.5 9-132.1 9s-102.7 2.6-132.1-9c-19.6-7.8-34.7-22.9-42.6-42.6-11.7-29.5-9-99.5-9-132.1s-2.6-102.7 9-132.1c7.8-19.6 22.9-34.7 42.6-42.6 29.5-11.7 99.5-9 132.1-9s102.7-2.6 132.1 9c19.6 7.8 34.7 22.9 42.6 42.6 11.7 29.5 9 99.5 9 132.1s2.7 102.7-9 132.1z"/>
</symbol>
<symbol id="icon-snapchat" viewBox="0 0 32 30">
	<path d="M31.7,23.4c-.4.7-1.7,1.3-4.2,1.7,0,.1-.1.4-.2.7l-.2.7c-.1.4-.4.6-.7.6s-.4,0-.8-.1c-.6-.1-1.2-.2-1.6-.2-.8,0-1.4.1-1.9.3-.4.2-.9.5-1.6,1-.9.6-1.5,1-2,1.2-.8.4-1.7.5-2.5.4-.9.1-1.7,0-2.5-.5-.6-.2-1.2-.6-1.8-1.1h0c-.7-.6-1.3-.9-1.6-1-.5-.2-1.2-.3-1.9-.3s-1,.1-1.7.2c-.4,0-.6,0-.7,0-.4,0-.6-.2-.7-.6l-.2-.7c-.1-.4-.2-.7-.2-.8-2.8-.4-4.2-1-4.2-2s0-.3.1-.4c.1-.1.2-.2.4-.2,1.8-.2,3.4-1.2,4.7-2.8.7-.8,1.2-1.6,1.5-2.5h0c.2-.5.3-.9.2-1.2-.1-.2-.4-.5-.7-.7-.2-.1-.6-.2-1-.4h-.4c-1.2-.6-1.7-1.2-1.6-1.8,0-.4.3-.6.8-.9.5-.2.9-.2,1.2,0,.6.2,1,.4,1.5.4s.4,0,.6-.1v-.7c-.2-1.5-.2-2.6-.2-3.4,0-1.2.2-2.2.5-3,.9-2,2.3-3.4,4.2-4.2,1.1-.5,2.3-.8,3.6-.8h.6c1.7,0,3.2.4,4.6,1.3,1.4.9,2.5,2.2,3.3,3.8.2.7.4,1.7.5,3,0,.8,0,1.9-.1,3.4v.8c0,.1.2.1.5.1.4,0,.9-.1,1.4-.4.4-.2.8-.2,1.3,0,.6.2.9.6.9,1.1s-.6,1.1-1.6,1.5h-.4c-1,.5-1.7.9-1.8,1.2-.1.3,0,.7.2,1.1h0c.3.9.8,1.7,1.5,2.5,1.4,1.6,2.9,2.6,4.7,2.8.2,0,.3.2.4.4.1.2.1.4,0,.6Z"/>
</symbol>

<!-- Alerts -->
<symbol id="icon-exclamation" viewBox="0 0 576 512">
	<path d="M569.517 440.013C587.975 472.007 564.806 512 527.94 512H48.054c-36.937 0-59.999-40.055-41.577-71.987L246.423 23.985c18.467-32.009 64.72-31.951 83.154 0l239.94 416.028zM288 354c-25.405 0-46 20.595-46 46s20.595 46 46 46 46-20.595 46-46-20.595-46-46-46zm-43.673-165.346l7.418 136c.347 6.364 5.609 11.346 11.982 11.346h48.546c6.373 0 11.635-4.982 11.982-11.346l7.418-136c.375-6.874-5.098-12.654-11.982-12.654h-63.383c-6.884 0-12.356 5.78-11.981 12.654z"/>
</symbol>
<symbol id="icon-success" viewBox="0 0 512 512">
	<path d="M504 256c0 136.967-111.033 248-248 248S8 392.967 8 256 119.033 8 256 8s248 111.033 248 248zM227.314 387.314l184-184c6.248-6.248 6.248-16.379 0-22.627l-22.627-22.627c-6.248-6.249-16.379-6.249-22.628 0L216 308.118l-70.059-70.059c-6.248-6.248-16.379-6.248-22.628 0l-22.627 22.627c-6.248 6.248-6.248 16.379 0 22.627l104 104c6.249 6.249 16.379 6.249 22.628.001z"/>
</symbol>
<symbol id="icon-info" viewBox="0 0 512 512">
	<path d="M256 8C119.043 8 8 119.083 8 256c0 136.997 111.043 248 248 248s248-111.003 248-248C504 119.083 392.957 8 256 8zm0 110c23.196 0 42 18.804 42 42s-18.804 42-42 42-42-18.804-42-42 18.804-42 42-42zm56 254c0 6.627-5.373 12-12 12h-88c-6.627 0-12-5.373-12-12v-24c0-6.627 5.373-12 12-12h12v-64h-12c-6.627 0-12-5.373-12-12v-24c0-6.627 5.373-12 12-12h64c6.627 0 12 5.373 12 12v100h12c6.627 0 12 5.373 12 12v24z"/>
</symbol>
<symbol id="icon-question" viewBox="0 0 512 512">
	<path d="M504 256c0 136.997-111.043 248-248 248S8 392.997 8 256C8 119.083 119.043 8 256 8s248 111.083 248 248zM262.655 90c-54.497 0-89.255 22.957-116.549 63.758-3.536 5.286-2.353 12.415 2.715 16.258l34.699 26.31c5.205 3.947 12.621 3.008 16.665-2.122 17.864-22.658 30.113-35.797 57.303-35.797 20.429 0 45.698 13.148 45.698 32.958 0 14.976-12.363 22.667-32.534 33.976C247.128 238.528 216 254.941 216 296v4c0 6.627 5.373 12 12 12h56c6.627 0 12-5.373 12-12v-1.333c0-28.462 83.186-29.647 83.186-106.667 0-58.002-60.165-102-116.531-102zM256 338c-25.365 0-46 20.635-46 46 0 25.364 20.635 46 46 46s46-20.636 46-46c0-25.365-20.635-46-46-46z"/>
</symbol>
<symbol id="icon-flag" viewBox="0 0 512 512">
	<path d="M349.565 98.783C295.978 98.783 251.721 64 184.348 64c-24.955 0-47.309 4.384-68.045 12.013a55.947 55.947 0 0 0 3.586-23.562C118.117 24.015 94.806 1.206 66.338.048 34.345-1.254 8 24.296 8 56c0 19.026 9.497 35.825 24 45.945V488c0 13.255 10.745 24 24 24h16c13.255 0 24-10.745 24-24v-94.4c28.311-12.064 63.582-22.122 114.435-22.122 53.588 0 97.844 34.783 165.217 34.783 48.169 0 86.667-16.294 122.505-40.858C506.84 359.452 512 349.571 512 339.045v-243.1c0-23.393-24.269-38.87-45.485-29.016-34.338 15.948-76.454 31.854-116.95 31.854z"/>
</symbol>
<symbol id="icon-prohibited" viewBox="0 0 512 512">
	<path d="M504 256c0 136.997-111.043 248-248 248S8 392.997 8 256C8 119.083 119.043 8 256 8s248 111.083 248 248zm-248 50c-25.405 0-46 20.595-46 46s20.595 46 46 46 46-20.595 46-46-20.595-46-46-46zm-43.673-165.346l7.418 136c.347 6.364 5.609 11.346 11.982 11.346h48.546c6.373 0 11.635-4.982 11.982-11.346l7.418-136c.375-6.874-5.098-12.654-11.982-12.654h-63.383c-6.884 0-12.356 5.78-11.981 12.654z"/>
</symbol>

<!-- Logos -->
<symbol id="academic-mark" viewBox="0 0 291.5 68.2">
	<g class="shield" fill="var(--mark-shield)">
		<path d="M9,8.91L5.66,8.25l2.22,2.54l-2.22,2.54L9,12.67l1.09,3.19l1.09-3.19l3.31,0.66l-2.23-2.54l2.23-2.54l-3.31,0.66l-1.09-3.2L9,8.91"/>
		<path d="M41.74,27.47v-2.23c-2.54,0.87-5.27,1.07-7.91,0.58c-4.75-0.68-6.72,0.62-6.72,0.62s-2-1.3-6.73-0.62c-2.64,0.49-5.37,0.29-7.91-0.58v2.23h-1.33v16.91h13.8c0.56,0.59,1.36,0.9,2.17,0.85c0.81,0.05,1.6-0.26,2.16-0.85h13.8V27.47H41.74z M26.53,42.68c0,0-1.68-1.14-6.43-0.53s-6.46-0.49-6.46-0.49V26.81c0,0,2,0.79,6.76,0.18s6.13,0.53,6.13,0.53L26.53,42.68zM40.59,41.68c0,0-1.72,1.09-6.47,0.48s-6.42,0.53-6.42,0.53V27.53c0,0,1.38-1.14,6.13-0.53s6.76-0.19,6.76-0.19L40.59,41.68z"/>
		<path d="M27.1,0.63H0v24.64C0,48.76,14.93,61.34,27.1,68.2c12.18-6.86,27.11-19.44,27.11-42.93V0.63H27.1z M27.1,63.88c-1.34-0.76-2.63-1.57-4-2.52c1.2-0.75,2.58-1.17,4-1.21c1.42,0.04,2.8,0.46,4,1.21C29.72,62.36,28.41,63.12,27.1,63.88M36.51,57.11c-0.45,0.48-1.03,0.8-1.67,0.94c-0.33,0.05-0.67,0.08-1,0.09c-2.75,0-3.37-1.65-6.73-1.65s-4,1.65-6.74,1.65c-0.33-0.01-0.67-0.04-1-0.09c-0.64-0.14-1.22-0.46-1.67-0.94c-1.35-1.19-2.61-2.47-3.78-3.84c2.53,0,3.16,1.54,6.44,1.54c2.76,0,3.37-1.66,6.74-1.66s4,1.66,6.73,1.66c3.29,0,3.9-1.53,6.44-1.54C39.11,54.64,37.85,55.93,36.51,57.11 M50.5,25.65c0.12,8.61-2.49,17.04-7.46,24.08l0,0c-0.7-0.23-1.44-0.33-2.18-0.32c-2.82,0-3.66,1.65-7,1.65c-2,0-2.91-0.9-4.58-1.37v-4c0,0-0.5,0.7-2.16,0.7S25,45.63,25,45.63v4c-1.67,0.47-2.54,1.38-4.58,1.38c-3.36,0-4.2-1.66-7-1.66c-0.74-0.01-1.48,0.09-2.19,0.32l0,0C6.24,42.66,3.61,34.25,3.7,25.65V4.33h46.81L50.5,25.65z"/>
		<path d="M29.26,20.9h9.33l3.15,1.82v-7.43l-3.15,1.82h-9.32V9.9l1.83-3.16h-8L25,9.9v7.21h-9.38l-3.15-1.82v7.43l3.15-1.82H25v3.79c0.75,0.09,1.48,0.31,2.16,0.65c0.68-0.34,1.41-0.56,2.16-0.65V20.9H29.26z"/>
	</g>
	<g class="text" fill="var(--mark-text)">
		<path d="M83.86,38.73c0,1,0,5.1,0.09,5.87c-0.27,0.34-0.7,0.52-1.13,0.47c-0.53-0.7-1.5-1.83-3.9-4.57l-7.81-8.91c-2.17-2.43-3.24-3.7-3.8-4.2c-0.1,0-0.1,0.37-0.1,2.14V36c0,2.5,0,5.57,0.6,6.58c0.42,0.52,1.04,0.82,1.7,0.83l0.73,0.09c0.3,0.24,0.27,0.88-0.06,1c-1.24-0.07-2.54-0.1-3.81-0.1s-2.3,0-3.46,0.1c-0.29-0.24-0.34-0.68-0.1-0.97c0.01-0.01,0.02-0.02,0.03-0.03l0.73-0.15c0.64-0.11,1.23-0.24,1.48-0.77c0.42-1,0.42-4,0.42-6.58v-7.88c0-2.6,0-3.13-1.1-4.1c-0.55-0.32-1.14-0.54-1.76-0.67l-0.51-0.1c-0.23-0.19-0.2-0.86,0.14-1c1.26,0.13,3.1,0.1,3.94,0.1c0.69,0,1.49,0,2.29-0.1c0.58,1.44,4.21,5.63,5.37,6.9l3.34,3.6c1.41,1.55,4.5,5.07,4.84,5.28c0.1-0.1,0.1-0.27,0.1-0.81v-6.5c0-2.5,0-5.57-0.64-6.57c-0.4-0.52-1.01-0.83-1.66-0.84l-0.77-0.1c-0.3-0.22-0.27-0.86,0.07-1c1.29,0.06,2.53,0.1,3.83,0.1s2.3,0,3.51-0.1c0.29,0.23,0.34,0.65,0.11,0.94c-0.02,0.02-0.03,0.04-0.05,0.06l-0.77,0.18c-0.63,0.09-1.19,0.23-1.43,0.76c-0.46,1-0.46,3.93-0.46,6.57L83.86,38.73z"/>
		<path d="M100.35,23.19c5.31,0,7.58,5.84,7.58,10.87c0,6.71-3.07,9.55-6.87,9.55c-5.71,0-7.68-6.28-7.68-10.88c0-7.1,3.64-9.54,7-9.54 M100.82,21.86c-6.33-0.27-11.69,4.64-11.96,10.97c-0.01,0.29-0.01,0.57-0.01,0.86c0,6,4.33,11.24,11.88,11.24c6.72,0,11.73-4.89,11.73-11.47c0-6.07-4-11.6-11.67-11.6"/>
		<path d="M122.78,25.19c0-1.4,0-1.46-0.89-1.46h-1c-3.06,0-4,0.37-5.2,3.06c-0.36,0.2-0.82,0.1-1.07-0.23c0.52-1.64,0.95-3.31,1.3-5c0.1-0.09,0.23-0.14,0.37-0.12c0.12-0.01,0.24,0.03,0.33,0.12c0.18,0.84,0.64,0.88,2.91,0.88h11.83c1.63,0,2.13-0.1,2.54-0.88c0.12-0.07,0.25-0.11,0.39-0.12c0.16-0.02,0.33,0.04,0.44,0.16c-0.37,1.74-0.54,3.53-0.5,5.31c-0.27,0.26-0.68,0.31-1,0.1c-0.43-2.61-1.06-3.23-4.63-3.23h-1c-0.88,0-0.91,0.06-0.91,1.46v14.37c0,3.53,0.31,3.63,1.88,3.8l1.19,0.12c0.25,0.29,0.23,0.74-0.06,1c-1.94-0.07-3.44-0.1-4.91-0.1s-3,0-5.17,0.1c-0.28-0.27-0.3-0.7-0.06-1l1.4-0.15c1.56-0.14,1.86-0.24,1.86-3.77L122.78,25.19z"/>
		<path d="M144.61,25.26c0-1.53,0-1.64,1.77-1.64c2.9,0,4.61,2.3,4.61,4.94c0,3.17-1.51,4.77-4.78,4.77c-1.6,0-1.6-0.06-1.6-1.13V25.26z M140.74,39.61c0,3.53-0.29,3.63-1.86,3.83l-0.74,0.09c-0.26,0.26-0.25,0.69,0.01,0.95c0.02,0.02,0.04,0.04,0.06,0.05c1.53-0.07,3-0.1,4.5-0.1s3,0,4.43,0.1c0.29-0.26,0.33-0.7,0.07-1l-0.73-0.09c-1.57-0.2-1.87-0.3-1.87-3.83v-4.27c0-0.71,0-0.74,1-0.74c0.87-0.16,1.74,0.31,2.07,1.13c0.8,1.3,1.74,3.15,2.64,4.54c2,3.11,3.77,4.41,7,4.41c0.74,0.02,1.48-0.05,2.2-0.21c0.11-0.21,0.09-0.48-0.07-0.66c-0.85-0.1-1.65-0.45-2.3-1c-1.56-1.31-3.24-4.13-5.9-8.64c-0.13-0.2-0.19-0.47,0-0.57c1.64-0.67,4-2.2,4-5.27c0.06-2.06-1.09-3.96-2.94-4.86c-1.98-0.88-4.14-1.29-6.31-1.18c-2.73,0-5.57,0.1-7.67,0.3c-0.25,0.26-0.25,0.67,0,0.93l0.86,0.1c1.57,0.17,1.6,0.57,1.6,3.77L140.74,39.61z"/>
		<path d="M165.18,27.2c0-3.54-0.3-3.65-1.87-3.87l-0.53-0.08c-0.22-0.22-0.2-0.83,0.07-1c0.63,0,1.33,0.06,2.07,0.06s1.5,0,2.23,0h6.37c2.14,0,4.08,0,4.51-0.1c0.13,0.57,0.33,3.2,0.53,4.63c-0.14,0.28-0.8,0.34-1.07,0.14c-0.53-1.94-1-2.77-2.1-3c-0.87-0.22-1.77-0.32-2.67-0.29h-2.23c-1.44,0-1.44,0.06-1.44,2v5.64c0,0.87,0,0.9,0.81,0.9h1.59c2.91,0,3.48,0,3.71-1.47l0.23-1.13c0.27-0.24,0.9-0.24,1.07,0c0,0.9-0.09,2.1-0.09,3.34c0,1.24,0.06,2.44,0.09,3.5c-0.32,0.23-0.75,0.23-1.07,0l-0.23-1.33c-0.23-1.4-0.8-1.47-3.71-1.47h-1.59c-0.78,0-0.81,0.07-0.81,0.9v4.24c0,1.7,0.06,2.9,0.57,3.47s1,0.73,3.77,0.73c4.23,0.07,5-0.9,6.13-3.6c0.35-0.23,0.82-0.14,1.07,0.19c-0.27,1.67-0.74,3.3-1.4,4.85c-0.73,0-1.8-0.07-3.2-0.07s-3.07,0-5,0h-3.8c-1.46,0-3.5,0-5,0.1c-0.29-0.26-0.31-0.71-0.06-1l1.22-0.12c1.57-0.17,1.87-0.27,1.87-3.8L165.18,27.2z"/>
		<path d="M198.91,26.56c0-1.57,0-2.27,0.27-2.46c0.84-0.38,1.77-0.54,2.69-0.48c5.58,0,9.42,3.21,9.42,9.81c0,5.64-2.67,9.84-8.6,9.84c-3.55,0-3.78-1.73-3.78-5V26.56z M195,39.61c0,3.53-0.29,3.63-1.87,3.83l-0.73,0.09c-0.23,0.24-0.2,0.84,0.07,1c1.46-0.07,3-0.1,4.23-0.1c0.63,0,1.34,0,2.14,0.1s1.7,0.09,2.7,0.09c2.85,0.12,5.68-0.43,8.28-1.6c3.69-1.77,6.03-5.51,6-9.6c0.16-4.48-2.62-8.53-6.85-10c-2.53-0.86-5.19-1.25-7.86-1.14c-3.27,0-6,0.1-8.34,0.3c-0.25,0.26-0.25,0.67,0,0.93l0.7,0.07c1.57,0.2,1.6,0.6,1.6,3.8L195,39.61z"/>
		<path d="M224.59,34.73c-0.8,0-0.9,0-0.54-1l1.4-3.91c0.61-1.57,0.87-2.4,1-2.63h0.06c0.4,0.84,0.72,1.72,0.94,2.63l1.41,4c0.27,0.79,0.13,0.86-0.8,0.86L224.59,34.73z M228.49,36.23c0.94,0,1,0,1.37,0.9l1.56,4.54c0.44,1.43,0.34,1.63-0.85,1.77l-0.75,0.09c-0.21,0.32-0.16,0.74,0.11,1c1.16,0,2.63-0.1,4.06-0.1c1.74,0,3,0,4.34,0.1c0.25-0.28,0.25-0.72,0-1l-0.5-0.09c-1.7-0.3-1.87-0.54-2.64-2.77l-4.81-14c-0.53-1.5-1-3.07-1.49-4.57c-0.14-0.17-0.35-0.27-0.57-0.26c-0.64,0.71-1.44,1.26-2.33,1.6c-0.01,0.85-0.23,1.69-0.64,2.44l-4.58,11.87c-0.69,1.8-1.22,3.2-1.63,4.06c-0.5,1.11-0.86,1.41-1.83,1.55l-1,0.15c-0.25,0.29-0.25,0.71,0,1c1.16-0.07,2.2-0.1,3.29-0.1c1.37,0,2.48,0,3.54,0.1c0.29-0.26,0.31-0.71,0.06-1l-1-0.15c-1.24-0.18-1.37-0.28-0.7-2.25l1.37-4c0.29-0.9,0.27-0.9,1.13-0.9L228.49,36.23z"/>
		<path d="M268.92,43.53c0.34,0.14,0.3,0.84-0.06,1c-1.44-0.07-2.74-0.1-4.08-0.1c-1.56,0-3,0-4.46,0.1c-0.27-0.14-0.41-0.77-0.07-1l0.9-0.15c1.34-0.21,1.43-0.47,1.43-2.75V27h-0.07c-0.9,1.84-1.36,2.84-2,4.17L257.65,37c-1.14,2.34-2.81,6-3.41,7.61c-0.27,0.13-0.6,0.13-0.87,0c-0.56-1.8-2-5.07-2.76-6.74l-3-6.4C247,30.09,246.1,28,245.71,27h-0.07c-0.07,1.64-0.13,4.24-0.2,5.64c-0.07,2-0.14,5-0.14,7.74c0,2.21,0,2.73,1.47,3l1.1,0.19c0.24,0.21,0.24,0.84,0,1c-1.24-0.07-2.27-0.1-3.5-0.1c-1.07,0-2.27,0-3.57,0.1c-0.3-0.25-0.35-0.69-0.11-1l0.57-0.06c1.6-0.2,1.86-0.7,2.07-2.74s0.34-4.26,0.5-7.73c0.14-2.27,0.33-5,0.33-7.08c0-1.57-0.49-2.26-1.79-2.46l-1.14-0.21c-0.2-0.22-0.17-0.86,0.13-1c1,0.06,1.9,0.1,3.14,0.1s2.33,0,3.57-0.1c0.26,1.94,0.88,3.82,1.83,5.54l3.68,7.7c0.26,0.56,1.13,2.24,1.56,3c0.53-1,1-1.9,1.74-3.46l3.12-6.41c1.12-2.02,2.02-4.16,2.69-6.37c0.91,0.06,2,0.1,2.75,0.1c1.4,0,2.57,0,3.5-0.1c0.29,0.12,0.43,0.45,0.31,0.74c-0.04,0.1-0.12,0.19-0.21,0.26l-1.1,0.18c-1.46,0.19-1.8,0.76-1.8,2.53c0,4.94,0.06,9.88,0.3,14.81c0.11,2.23,0.47,2.47,1.53,2.61L268.92,43.53z"/>
		<path d="M276.06,27.2c0-3.54-0.3-3.65-1.87-3.87l-0.53-0.08c-0.23-0.22-0.2-0.83,0.06-1c0.63,0,1.34,0.06,2.07,0.06s1.5,0,2.24,0h6.37c2.13,0,4.07,0,4.5-0.1c0.14,0.57,0.34,3.2,0.54,4.63c-0.14,0.28-0.8,0.34-1.08,0.14c-0.52-1.94-1-2.77-2.09-3c-0.87-0.22-1.77-0.32-2.67-0.29h-2.24c-1.43,0-1.43,0.06-1.43,2v5.64c0,0.87,0,0.9,0.8,0.9h1.6c2.91,0,3.47,0,3.71-1.47l0.23-1.13c0.31-0.26,0.75-0.26,1.06,0c0,0.9-0.1,2.1-0.1,3.34c0,1.24,0.06,2.44,0.1,3.5c-0.32,0.23-0.74,0.23-1.06,0L286,35.2c-0.24-1.4-0.8-1.47-3.71-1.47h-1.6c-0.77,0-0.8,0.07-0.8,0.9v4.24c0,1.7,0.07,2.9,0.56,3.47s1,0.73,3.78,0.73c4.23,0.07,5-0.9,6.14-3.6c0.35-0.23,0.82-0.14,1.07,0.19c-0.28,1.67-0.75,3.29-1.41,4.85c-0.74,0-1.8-0.07-3.2-0.07s-3.07,0-5,0H278c-1.47,0-3.51,0-5,0.1c-0.28-0.26-0.31-0.7-0.07-1l1.24-0.12c1.57-0.17,1.87-0.27,1.87-3.8L276.06,27.2z"/>
		<path d="M64.3,3.84c0-2.08-0.15-2.14-1.42-2.42l-0.43-0.08c-0.21-0.16-0.18-0.67,0.07-0.76c1,0.05,2,0.09,2.93,0.09s1.9,0,3.08-0.09c0.24,0.09,0.27,0.6,0,0.76L68,1.42c-1.3,0.22-1.42,0.34-1.42,2.42V8.1c0,3,1,5.06,3.93,5.06c2.71,0,3.89-2.05,3.89-5V5.32c0-3-0.17-3.72-1.48-3.9l-0.63-0.08c-0.2-0.2-0.19-0.53,0.01-0.72c0.01-0.01,0.03-0.03,0.05-0.04c1,0.05,1.66,0.09,2.54,0.09s1.54,0,2.5-0.09c0.21,0.18,0.23,0.5,0.06,0.7c-0.02,0.02-0.04,0.04-0.06,0.06l-0.9,0.08c-0.79,0.09-1,0.91-1,3.9v3c0,3.86-1.79,5.88-5.63,5.88c-1.54,0.14-3.07-0.31-4.29-1.26c-0.9-0.9-1.29-2.29-1.29-4.26L64.3,3.84z"/>
		<path d="M97.46,5.32c0-3-0.18-3.78-1.3-3.9l-1-0.08c-0.2-0.2-0.19-0.53,0.01-0.72c0.01-0.01,0.03-0.03,0.05-0.04c1.12,0.05,1.81,0.09,2.7,0.09s1.54,0,2.5-0.09c0.21,0.2,0.21,0.54,0.01,0.75c0,0-0.01,0.01-0.01,0.01l-0.9,0.08c-0.79,0.09-1,0.91-1,3.9v5.07c0,0.6,0,3,0.09,3.51c-0.13,0.22-0.39,0.32-0.64,0.26c-0.33-0.42-0.94-1.05-2.81-3.07l-4.56-4.9c-1.15-1.2-1.93-2-2.32-2.32c-0.12,0-0.12,0.33-0.12,1.26v4c0,3,0.18,3.81,1.29,3.9l1,0.09c0.2,0.19,0.2,0.5,0.02,0.69c-0.02,0.03-0.05,0.05-0.08,0.07c-1.12-0.07-1.82-0.1-2.68-0.1s-1.46,0-2.52,0.1c-0.21-0.19-0.23-0.51-0.04-0.72c0.01-0.01,0.03-0.03,0.04-0.04L86,13c0.78-0.09,1-0.91,1-3.9V3.72c0-1,0-1.42-0.64-1.87c-0.34-0.21-0.72-0.36-1.12-0.43l-0.45-0.08c-0.2-0.19-0.2-0.5-0.02-0.69c0.02-0.03,0.05-0.05,0.08-0.07c1.15,0.09,2,0.09,2.6,0.09c0.43,0,0.86-0.03,1.28-0.09c0.83,1.36,1.84,2.61,3,3.71l2.85,2.93C95.19,7.88,97,9.8,97.28,10c0.18-0.06,0.18-0.49,0.18-1.21V5.32z"/>
		<path d="M110.44,3.84c0-2.08-0.12-2.2-1.41-2.42l-0.58-0.08c-0.21-0.16-0.18-0.67,0.07-0.76c1.17,0.05,2.11,0.09,3.07,0.09s1.91,0,3.08-0.09c0.24,0.09,0.28,0.6,0.06,0.76l-0.57,0.08c-1.3,0.22-1.42,0.34-1.42,2.42v6.76c0,2.09,0.12,2.2,1.42,2.42l0.57,0.09c0.2,0.2,0.19,0.53-0.01,0.72c-0.01,0.01-0.03,0.03-0.05,0.04c-1.14-0.07-2.15-0.1-3.08-0.1s-1.9,0-3.07,0.1c-0.23-0.17-0.28-0.49-0.11-0.71c0.01-0.02,0.03-0.03,0.04-0.05L109,13c1.29-0.22,1.41-0.33,1.41-2.42L110.44,3.84z"/>
		<path d="M124.36,3.9c-0.91-2-1-2.14-1.74-2.33l-1-0.23c-0.21-0.2-0.21-0.54-0.01-0.75c0,0,0.01-0.01,0.01-0.01c0.78,0.05,1.78,0.09,2.71,0.09c1.1,0,2,0,2.94-0.09c0.21,0.15,0.26,0.45,0.1,0.66c-0.03,0.04-0.06,0.07-0.1,0.1l-0.64,0.08c-0.78,0.12-0.78,0.52-0.12,2L128,6.76c0.76,1.73,1.27,2.85,1.72,3.84c0.61-1.27,1.12-2.53,1.69-3.8s1.49-3.48,1.79-4.36c0.21-0.63,0.17-0.84-0.73-1L132,1.34c-0.2-0.17-0.22-0.46-0.05-0.66c0.03-0.04,0.07-0.07,0.11-0.1c0.88,0.05,1.66,0.09,2.47,0.09c0.72,0.01,1.44-0.02,2.15-0.09c0.24,0.12,0.34,0.42,0.22,0.66c-0.02,0.04-0.04,0.07-0.07,0.1l-0.85,0.17c-0.9,0.19-1.08,0.46-2.05,2.51L131.65,9c-0.91,1.93-1.79,4.13-2.15,5.13c-0.11,0.08-0.24,0.12-0.37,0.11c-0.13,0-0.25-0.04-0.35-0.11c-0.28-0.79-0.61-1.76-1-2.6L124.36,3.9z"/>
		<path d="M145.3,3.84c0-2.08-0.12-2.18-1.27-2.42l-0.42-0.08c-0.22-0.13-0.17-0.64,0.06-0.76c0.45,0,0.91,0.05,1.36,0.05s1,0,1.45,0h4.29c1.33,0,2.53,0,2.81-0.09c0,0.36,0.18,1.78,0.33,3.08c-0.19,0.23-0.54,0.27-0.77,0.07c-0.01,0-0.01-0.01-0.02-0.01c-0.09-0.51-0.28-1.01-0.54-1.46c-0.48-0.72-1.84-0.72-2.56-0.72h-1.34c-1.06,0-1.09,0-1.09,1v3.36c0,0.55,0,0.61,0.57,0.61h1.43c1.6,0,1.74-0.25,2-1.15l0.16-0.57c0.17-0.21,0.48-0.23,0.69-0.06c0.02,0.02,0.04,0.04,0.06,0.06c-0.06,0.88-0.06,1.42-0.06,2.12s0,1.3,0.06,2.17c-0.17,0.22-0.49,0.27-0.71,0.1c-0.01-0.01-0.02-0.02-0.04-0.03l-0.16-0.58c-0.25-0.9-0.39-1.14-2-1.14h-1.43c-0.57,0-0.57,0.09-0.57,0.69v2.22c-0.08,0.74,0.04,1.49,0.34,2.17c0.27,0.31,0.82,0.43,2.53,0.43c1.94,0,3.06-0.1,3.93-2.51c0.21-0.19,0.53-0.17,0.72,0.04c0.02,0.03,0.04,0.05,0.06,0.08c-0.12,1.16-0.42,2.29-0.9,3.36c-0.93,0-1.81-0.07-2.65-0.07s-1.67,0-2.48,0h-2.66c-1,0-1.9,0-3.36,0.1c-0.24-0.1-0.26-0.61-0.05-0.76l0.82-0.09c1.29-0.15,1.41-0.33,1.41-2.42L145.3,3.84z"/>
		<path d="M167,2.29c0-0.78,0.22-0.84,1.33-0.84c1.56-0.18,2.98,0.94,3.16,2.5c0.01,0.11,0.02,0.23,0.02,0.34c0,2.08-1,2.88-3,2.88c-1.48,0-1.52,0-1.52-0.76L167,2.29z M164.71,10.6c0,2.09-0.11,2.14-1.42,2.42l-0.45,0.09c-0.2,0.14-0.26,0.41-0.12,0.61c0.04,0.06,0.1,0.12,0.17,0.15c1.07-0.07,2-0.1,3-0.1s1.94,0,3.21,0.1c0.22-0.17,0.27-0.49,0.1-0.71c-0.01-0.02-0.03-0.03-0.04-0.05l-0.7-0.09c-1.3-0.19-1.42-0.33-1.42-2.42V8.46c0-0.43,0.07-0.48,0.85-0.48c0.46-0.05,0.91,0.13,1.21,0.48c0.63,1,1.45,2.29,2.2,3.26c1.33,1.69,2.42,2.26,4.23,2.26c0.43,0.02,0.86-0.03,1.27-0.15c0.13-0.13,0.13-0.35,0-0.48c-0.59-0.03-1.15-0.25-1.6-0.63c-1.55-1.38-2.85-3.02-3.84-4.84c-0.1-0.13-0.1-0.31,0-0.44c1.5-0.38,2.58-1.69,2.64-3.24c0-3.2-3-3.62-5.84-3.62c-1.66,0-3.35,0.05-5,0.18c-0.3,0.09-0.25,0.72,0,0.75l0.85,0.13c0.69,0.09,0.72,0.6,0.72,2.56L164.71,10.6z"/>
		<path d="M186.68,7.61C185.23,6.85,184,5.68,184,4c0-2.2,1.7-3.75,4.75-3.75c0.95,0.06,1.89,0.22,2.81,0.46c0.35,0.96,0.49,1.98,0.43,3c-0.19,0.23-0.54,0.27-0.77,0.07c-0.01,0-0.01-0.01-0.02-0.01c-0.19-1.42-1.37-2.51-2.8-2.59c-1.79,0-2.46,1-2.46,2s0.82,1.76,2,2.39l1.87,1c1.48,0.71,2.42,2.21,2.44,3.85c0,2.35-1.93,3.82-4.92,3.82c-1.23,0.04-2.44-0.29-3.48-0.93c-0.46-0.97-0.67-2.04-0.62-3.11c0.12-0.23,0.39-0.31,0.62-0.2c0.06,0.03,0.12,0.08,0.16,0.14c0.23,1.09,1.56,3.24,3.6,3.24c1.54,0,2.53-0.8,2.53-2.19c0-1-0.39-2-2.11-2.83L186.68,7.61z"/>
		<path d="M202.48,3.84c0-2.08-0.13-2.2-1.43-2.42l-0.56-0.08c-0.22-0.16-0.18-0.67,0-0.76c1.19,0.05,2.12,0.09,3.08,0.09s1.9,0,3.09-0.09c0.24,0.09,0.27,0.6,0,0.76l-0.57,0.08c-1.3,0.22-1.42,0.34-1.42,2.42v6.76c0,2.09,0.12,2.2,1.42,2.42l0.57,0.09c0.21,0.18,0.23,0.5,0.06,0.7c-0.02,0.02-0.04,0.04-0.06,0.06c-1.15-0.07-2.15-0.1-3.09-0.1s-1.89,0-3.08,0.1c-0.21-0.19-0.23-0.51-0.04-0.72c0.01-0.01,0.03-0.03,0.04-0.04l0.56-0.09c1.3-0.22,1.43-0.33,1.43-2.42V3.84z"/>
		<path d="M219.81,2.33c0-0.79,0-0.79-0.63-0.79h-1c-1.83,0-2.62,0.19-3.35,2.26c-0.22,0.17-0.54,0.13-0.72-0.09c-0.01-0.02-0.02-0.03-0.03-0.05c0.33-1.3,0.67-2.81,0.82-3.57c0.16-0.12,0.38-0.12,0.54,0c0,0.61,0.46,0.58,1.66,0.58h8.4c1.12,0,1.33,0,1.57-0.58c0.18-0.11,0.42-0.07,0.55,0.09c-0.27,1.16-0.37,2.35-0.31,3.54c-0.17,0.21-0.47,0.24-0.67,0.08c-0.03-0.02-0.05-0.05-0.08-0.08c-0.21-2-1-2.21-2.81-2.21h-1c-0.58,0-0.67,0-0.67,0.79v8.3c0,2.09,0.13,2.27,1.43,2.42l0.81,0.09c0.2,0.2,0.19,0.53-0.01,0.72c-0.01,0.01-0.03,0.03-0.05,0.04c-1.25-0.07-2.38-0.1-3.32-0.1s-2.06,0-3.32,0.1c-0.22-0.16-0.27-0.47-0.11-0.7c0.02-0.02,0.03-0.04,0.05-0.06l0.81-0.09c1.3-0.15,1.42-0.33,1.42-2.42L219.81,2.33z"/>
		<path d="M239.71,9.76c0.01-0.93-0.29-1.83-0.84-2.58l-2.21-4.07c-0.63-1.21-0.93-1.47-1.72-1.63l-0.78-0.14c-0.19-0.21-0.18-0.53,0.03-0.72c0.02-0.01,0.03-0.03,0.05-0.04c1,0.05,1.69,0.09,2.78,0.09c0.91,0,1.6,0,2.58-0.09c0.21,0.14,0.26,0.43,0.12,0.64c-0.03,0.05-0.07,0.09-0.12,0.12l-0.42,0.08c-0.67,0.15-0.76,0.34-0.27,1.27l1.12,2.14c0.45,0.91,0.9,1.73,1.35,2.51c0.48-0.82,0.94-1.54,1.45-2.51l1.21-2.2c0.46-0.84,0.51-1.12-0.21-1.21l-0.63-0.08c-0.2-0.14-0.25-0.41-0.11-0.61c0.04-0.06,0.1-0.11,0.17-0.15c0.91,0.05,1.6,0.09,2.29,0.09s1.3,0,2.14-0.09c0.23,0.15,0.29,0.45,0.14,0.68c-0.02,0.03-0.04,0.06-0.07,0.08l-0.72,0.14c-0.94,0.18-1.1,0.37-2,1.88l-1.87,3C242.07,8.1,242,8.4,242,9.28v1.62c0,1.79,0.12,2,1.42,2.12l0.76,0.09c0.19,0.21,0.17,0.54-0.04,0.73c-0.01,0.01-0.02,0.02-0.03,0.03c-1.32-0.07-2.33-0.1-3.26-0.1s-1.91,0-3.26,0.1c-0.23-0.17-0.28-0.49-0.11-0.71c0.01-0.02,0.03-0.03,0.04-0.05l0.77-0.09c1.3-0.15,1.41-0.33,1.41-2.12L239.71,9.76z"/>
		<path d="M265.57,1c3.32,0,4.86,3.26,4.86,6.49c0,4.13-2.21,5.71-4.5,5.71c-3.51,0-4.92-3.35-4.92-6.47C261,2.5,263.39,1,265.57,1M265.78,0.12c-4.38,0-7.45,3.08-7.45,7.1c0,3.81,2.77,6.85,7.45,6.85c4.26,0,7.35-3,7.35-7c0-3.68-2.49-6.91-7.35-6.91"/>
		<path d="M280.76,3.83c0-2.08-0.15-2.14-1.27-2.41l-0.36-0.09c-0.21-0.16-0.18-0.67,0.06-0.76c0.41,0,0.84,0.06,1.3,0.06s0.94,0,1.42,0h4.19c1.34,0,2.48,0,2.91-0.09c0,0.36,0.05,1.78,0.15,3.09c-0.15,0.22-0.44,0.28-0.67,0.13c-0.05-0.04-0.1-0.08-0.13-0.13c-0.09-0.51-0.27-1-0.53-1.45c-0.52-0.75-1.85-0.71-2.57-0.71h-1.18c-0.93,0-1,0-1,1v3.5c0,0.56,0,0.61,0.57,0.61h1.63c1.6,0,1.76-0.25,2-1.14l0.16-0.58c0.19-0.19,0.5-0.19,0.69,0c0.02,0.02,0.03,0.04,0.05,0.06c0,0.88,0,1.41,0,2.11s0,1.31,0,2.18c-0.16,0.22-0.47,0.27-0.68,0.11c-0.02-0.01-0.04-0.03-0.06-0.05l-0.16-0.57c-0.23-0.91-0.39-1.15-2-1.15h-1.63c-0.57,0-0.57,0.09-0.57,0.69v2.36c0,2.09,0.12,2.29,1.42,2.41l0.93,0.1c0.2,0.2,0.19,0.53-0.01,0.72c-0.01,0.01-0.03,0.03-0.05,0.04c-1.52-0.07-2.51-0.1-3.44-0.1s-1.9,0-3.08,0.1c-0.23-0.17-0.28-0.49-0.11-0.71c0.01-0.02,0.03-0.03,0.04-0.05l0.58-0.1c1.29-0.21,1.42-0.32,1.42-2.41L280.76,3.83z"/>
		<path d="M11.16,49.72L11.16,49.72L11.16,49.72"/>
	</g>
</symbol>
<symbol id="shield" viewBox="0 0 411 512" fill="var(--mark-shield)">
	<path d="M69.7,88.6c1,3,6.7,19.7,6.7,19.7,0,0,5.7-16.7,6.7-19.7,3.2.6,20.4,4,20.4,4,0,0-11.6-13.3-13.7-15.7,2.1-2.4,13.7-15.7,13.7-15.7,0,0-17.3,3.4-20.4,4-1-3-6.7-19.7-6.7-19.7,0,0-5.7,16.7-6.7,19.7-3.2-.6-20.4-4-20.4-4,0,0,11.6,13.3,13.7,15.7-2.1,2.4-13.7,15.7-13.7,15.7,0,0,17.3-3.4,20.4-4"/>
	<path d="M213.3,323.9v-104c5.4-2.3,18.1-5.5,43.1-2.3,22.5,2.9,36.9,1.6,44.6.2v102.5c-7.2,2-20.5,3.9-42.3,1.1-25.7-3.3-39.6.2-45.3,2.4M382.9,189.6c0,75.5-23.2,135.4-56.5,182.5,0,0-6.5-2.4-16.5-2.4-21.3,0-27.7,12.5-53.2,12.5s-22-6.8-34.7-10.4v-33.5h94.5v-139.7s-22.1,9.7-60,4.4c-15.1-2.2-26.4-1.7-34.6-.4v-44.9h70.7l23.8,13.8v-56.3l-23.8,13.8h-70.7v-54.7l13.9-24h-60.5l13.9,24v54.7h-70.7l-23.9-13.8v56.3l23.9-13.8h70.7v44.9c-8.1-1.3-19.5-1.7-34.5.4-37.9,5.4-60-4.4-60-4.4v139.7h94.6v33.5c-12.7,3.6-19.2,10.4-34.7,10.4-25.5,0-31.8-12.5-53.2-12.5s-16.7,2.4-16.7,2.4c-33.3-47.1-56.5-106.9-56.5-182.5V28h354.8v161.5s0,0,0,0ZM197.7,323.7c-5.9-2.3-19.7-5.7-45.2-2.4-21.7,2.8-35.1.9-42.2-1.1v-102.4c7.6,1.4,22,2.6,44.4-.3,24.9-3.2,37.5,0,43,2.2v104ZM276.8,428c-5.3,4.6-7.7,6-12.6,7.1-2.5.5-7.6.7-7.6.7-20.9,0-25.5-12.5-51-12.5s-30.2,12.5-51,12.5c0,0-5.1-.2-7.5-.7-4.9-1.1-7.3-2.5-12.7-7.1-10.3-9-19.2-18.3-28.6-29.1,19.2,0,24,11.6,48.8,11.6s25.5-12.6,51-12.6,30.1,12.6,51,12.6,29.6-11.6,48.8-11.6c-9.4,10.8-18.3,20.2-28.6,29.1M205.5,479.3c-10.2-5.8-20-11.9-30.5-19.2,8.2-3.6,15.4-9.1,30.5-9.1s22.3,5.5,30.5,9.1c-10.5,7.2-20.4,13.3-30.5,19.2M.2,0v186.7c0,178,113.1,273.3,205.3,325.3,92.2-52,205.3-147.3,205.3-325.3V0H.2Z"/>
</symbol>
<symbol id="mobile-mark" viewBox="0 0 240 35.4">
	<g class="shield" fill="var(--mark-shield)">
		<path d="M4.8,6.1c0,.2.5,1.4.5,1.4,0,0,.4-1.2.5-1.4.2,0,1.4.3,1.4.3,0,0-.8-.9-.9-1.1.1-.2.9-1.1.9-1.1,0,0-1.2.2-1.4.3,0-.2-.5-1.4-.5-1.4,0,0-.4,1.2-.5,1.4-.2,0-1.4-.3-1.4-.3,0,0,.8.9.9,1.1-.1.2-.9,1.1-.9,1.1,0,0,1.2-.2,1.4-.3" />
		<path d="M0,0v12.9c0,12.3,7.8,18.9,14.2,22.5,6.4-3.6,14.2-10.2,14.2-22.5V0S0,0,0,0ZM14.2,33.2c-.7-.4-1.4-.8-2.1-1.3.6-.3,1.1-.6,2.1-.6s1.5.4,2.1.6c-.7.5-1.4.9-2.1,1.3M19.1,29.6c-.4.3-.5.4-.9.5-.2,0-.5,0-.5,0-1.4,0-1.8-.9-3.5-.9s-2.1.9-3.5.9c0,0-.4,0-.5,0-.3,0-.5-.2-.9-.5-.7-.6-1.3-1.3-2-2,1.3,0,1.7.8,3.4.8s1.8-.9,3.5-.9,2.1.9,3.5.9,2-.8,3.4-.8c-.6.8-1.3,1.4-2,2M13.7,22.4c-.4-.2-1.4-.4-3.1-.2-1.5.2-2.4,0-2.9,0v-7.1c.5,0,1.5.2,3.1,0,1.7-.2,2.6,0,3,.2v7.2ZM26.5,13.1c0,5.2-1.6,9.4-3.9,12.6,0,0-.4-.2-1.1-.2-1.5,0-1.9.9-3.7.9s-1.5-.5-2.4-.7v-2.3h6.5v-8.5s0-1.2,0-1.2c0,0-1.5.7-4.1.3-1-.1-1.8-.1-2.4,0v-3.1h4.9l1.6,1v-3.9l-1.6,1h-4.9v-3.8l1-1.7h-4.2l1,1.7v3.8h-4.9l-1.7-1v3.9l1.7-1h4.9v3.1c-.6,0-1.3-.1-2.4,0-2.6.4-4.2-.3-4.2-.3v9.7s6.5,0,6.5,0v2.3c-.9.2-1.3.7-2.4.7-1.8,0-2.2-.9-3.7-.9s-1.2.2-1.2.2c-2.3-3.3-3.9-7.4-3.9-12.6V1.9s24.5,0,24.5,0v11.2ZM14.7,22.4v-7.2c.4-.2,1.3-.4,3-.2,1.6.2,2.6.1,3.1,0v7.1c-.5.1-1.4.3-2.9,0-1.8-.2-2.7,0-3.1.2" />
	</g>
	<g class="text" fill="var(--mark-text)">
		<path d="M56.3,19.5c0,.9,0,4.5,0,5.2-.2.3-.6.4-1,.4-.5-.6-1.3-1.6-3.5-4l-6.9-7.9c-1.9-2.2-2.9-3.3-3.4-3.7,0,0,0,.3,0,1.9v5.7c0,2.2,0,4.9.5,5.8.3.4.8.6,1.5.7h.6c.3.3.2.9,0,.9-1.1,0-2.2,0-3.4,0s-2,0-3.1,0c-.2-.1-.3-.7,0-.9h.6c.6-.2,1.1-.3,1.3-.8.4-.9.4-3.5.4-5.8v-7c0-2.3,0-2.8-1-3.6-.3-.3-1.1-.5-1.6-.6h-.4c-.2-.3-.2-.8.1-.9,1.1.1,2.7,0,3.5,0s1.3,0,2,0c.5,1.3,3.7,5,4.8,6.1l3,3.2c1.2,1.4,4,4.5,4.3,4.7,0,0,0-.2,0-.7v-5.8c0-2.2,0-4.9-.6-5.8-.3-.4-.7-.6-1.5-.7h-.7c-.3-.3-.2-.8,0-.9,1.1,0,2.2,0,3.4,0s2,0,3.1,0c.2.1.3.7,0,.9l-.7.2c-.6,0-1.1.2-1.3.7-.4.9-.4,3.5-.4,5.8v7.1Z" />
		<path d="M70.9,5.7c4.7,0,6.7,5.2,6.7,9.6s-2.7,8.4-6.1,8.4c-5,0-6.8-5.6-6.8-9.6,0-6.3,3.2-8.5,6.2-8.5M71.2,4.5c-6.2,0-10.6,4.5-10.6,10.5s3.8,9.9,10.5,9.9,10.4-4.3,10.4-10.2-3.5-10.3-10.3-10.3" />
		<path d="M90.7,7.5c0-1.2,0-1.3-.8-1.3h-.9c-2.7,0-3.5.3-4.6,2.7-.2.2-.8,0-1-.2.5-1.6,1-3.4,1.2-4.5,0,0,.2-.1.3-.1s.2,0,.3.1c.1.7.6.8,2.6.8h10.5c1.4,0,1.9,0,2.2-.8.1,0,.2-.1.4-.1.2,0,.3,0,.4.1-.3,1.2-.5,3.8-.4,4.7-.1.2-.6.3-.9,0-.4-2.3-.9-2.9-4.1-2.9h-.9c-.8,0-.8,0-.8,1.3v12.8c0,3.1.3,3.2,1.7,3.4h1.1c.2.3.2.8,0,1-1.7,0-3,0-4.3,0s-2.7,0-4.6,0c-.2-.1-.3-.7,0-.9h1.2c1.4-.3,1.7-.3,1.7-3.5V7.5Z" />
		<path d="M110,7.5c0-1.4,0-1.5,1.6-1.5,2.6,0,4.1,2,4.1,4.4s-1.3,4.2-4.2,4.2-1.4,0-1.4-1v-6.1ZM106.6,20.2c0,3.1-.3,3.2-1.7,3.4h-.7c-.3.3-.2.8,0,.9,1.4,0,2.7,0,4,0s2.6,0,3.9,0c.2-.1.3-.7,0-.9h-.6c-1.4-.3-1.7-.3-1.7-3.5v-3.8c0-.6,0-.7.9-.7s1.3.1,1.8,1c.7,1.2,1.5,2.8,2.3,4,1.8,2.7,3.3,3.9,6.2,3.9s1.6,0,1.9-.2c0-.1,0-.5,0-.6-.3,0-1.2-.2-2-.9-1.4-1.2-2.9-3.7-5.2-7.6-.1-.2-.2-.4,0-.5,1.4-.6,3.5-1.9,3.5-4.7s-1.1-3.5-2.6-4.3c-1.3-.7-3.3-1-5.6-1s-4.9,0-6.8.3c-.2.1-.2.6,0,.8h.8c1.4.2,1.4.6,1.4,3.4v10.8Z" />
		<path d="M128.2,9.3c0-3.1-.3-3.2-1.7-3.4h-.5c-.2-.3-.2-.8,0-.9.6,0,1.2,0,1.8,0,.6,0,1.3,0,2,0h5.6c1.9,0,3.6,0,4,0,.1.5.3,2.8.5,4.1-.1.2-.7.3-.9.1-.5-1.7-.9-2.4-1.9-2.7-.7-.2-1.6-.3-2.4-.3h-2c-1.3,0-1.3,0-1.3,1.7v5c0,.8,0,.8.7.8h1.4c2.6,0,3.1,0,3.3-1.3l.2-1c.2-.2.8-.2.9,0,0,.8,0,1.9,0,3s0,2.2,0,3.1c-.1.2-.7.2-.9,0l-.2-1.2c-.2-1.2-.7-1.3-3.3-1.3h-1.4c-.7,0-.7,0-.7.8v3.8c0,1.5,0,2.6.5,3.1.4.4.9.7,3.3.7,3.8,0,4.4-.8,5.4-3.2.3-.2.8-.1,1,.2-.2,1.2-.8,3.5-1.2,4.3-.6,0-1.6,0-2.8,0-1.2,0-2.7,0-4.5,0h-3.4c-1.3,0-3.1,0-4.4,0-.2-.1-.3-.7,0-.9h1.1c1.4-.3,1.7-.3,1.7-3.5v-11Z" />
		<path d="M158.1,8.7c0-1.4,0-2,.2-2.2.2-.2,1.2-.4,2.4-.4,4.9,0,8.3,2.8,8.3,8.7s-2.4,8.7-7.6,8.7-3.3-1.5-3.3-4.4v-10.4ZM154.7,20.2c0,3.1-.3,3.2-1.6,3.4h-.7c-.2.3-.2.8,0,.9,1.3,0,2.6,0,3.8,0s1.2,0,1.9,0c.7,0,1.5,0,2.4,0,2.7,0,5.2-.3,7.3-1.4,3.7-1.9,5.3-5.2,5.3-8.5s-2.5-7.5-6.1-8.8c-2.1-.8-4.2-1-7-1s-5.3,0-7.4.3c-.2.1-.2.7,0,.8h.6c1.4.2,1.4.6,1.4,3.4v10.8Z" />
		<path d="M180.8,15.9c-.7,0-.8,0-.5-.8l1.2-3.5c.5-1.4.8-2.1.9-2.3h0c.1.2.3.8.8,2.3l1.2,3.5c.2.7.1.8-.7.8h-3.1ZM184.3,17.2c.8,0,.9,0,1.2.8l1.4,4c.4,1.3.3,1.4-.8,1.6h-.7c-.2.3-.1.8,0,.9,1,0,2.3,0,3.6,0s2.6,0,3.8,0c.2-.1.2-.6,0-.9h-.4c-1.5-.3-1.7-.6-2.3-2.5l-4.3-12.4c-.5-1.3-.8-2.7-1.3-4-.1-.1-.3-.2-.5-.2s-1,1.2-2.1,1.4c0,.5-.2,1.2-.6,2.2l-4,10.5c-.6,1.6-1.1,2.8-1.4,3.6-.4,1-.8,1.2-1.6,1.4h-.9c-.2.4-.2.8,0,1,1,0,2,0,2.9,0,1.2,0,2.2,0,3.1,0,.2-.1.3-.6,0-.9h-.9c-1.1-.3-1.2-.4-.6-2.1l1.2-3.5c.3-.8.2-.8,1-.8h3.9Z" />
		<path d="M220,23.7c.3.1.3.7,0,.9-1.3,0-2.4,0-3.6,0s-2.7,0-4,0c-.2-.1-.4-.7,0-.9h.8c1.2-.3,1.3-.6,1.3-2.6v-12.1h0c-.8,1.6-1.2,2.5-1.8,3.7l-2.5,5.2c-1,2.1-2.5,5.3-3,6.7-.1.1-.6.1-.8,0-.5-1.6-1.8-4.5-2.4-6l-2.6-5.7c-.6-1.2-1.4-3.1-1.7-4h0c0,1.4-.1,3.7-.2,5,0,1.8-.1,4.4-.1,6.8s0,2.4,1.3,2.6l1,.2c.2.2.2.7,0,.9-1.1,0-2,0-3.1,0s-2,0-3.2,0c-.3-.1-.3-.7,0-.9h.5c1.4-.2,1.6-.7,1.8-2.5.2-1.9.3-3.8.4-6.8.1-2,.3-4.5.3-6.3s-.4-2-1.6-2.2l-1-.2c-.2-.2-.1-.8.1-.9.9,0,1.7,0,2.8,0s2.1,0,3.2,0c.1,1.8.9,3.3,1.6,4.9l3.3,6.8c.2.5,1,2,1.4,2.7.5-.9.9-1.7,1.5-3.1l2.8-5.7c.9-1.9,1.9-3.7,2.4-5.6.8,0,1.8,0,2.4,0,1.2,0,2.3,0,3.1,0,.3.1.4.7,0,.9l-1,.2c-1.3.2-1.6.7-1.6,2.2,0,4.4,0,8.7.3,13.1,0,2,.4,2.2,1.4,2.3h.9Z" />
		<path d="M226.4,9.3c0-3.1-.3-3.2-1.6-3.4h-.5c-.2-.3-.2-.8,0-.9.6,0,1.2,0,1.8,0,.6,0,1.3,0,2,0h5.6c1.9,0,3.6,0,4,0,.1.5.3,2.8.5,4.1-.1.2-.7.3-1,.1-.5-1.7-.9-2.4-1.8-2.7-.7-.2-1.6-.3-2.4-.3h-2c-1.3,0-1.3,0-1.3,1.7v5c0,.8,0,.8.7.8h1.4c2.6,0,3.1,0,3.3-1.3l.2-1c.2-.2.8-.2.9,0,0,.8,0,1.9,0,3s0,2.2,0,3.1c-.1.2-.7.2-.9,0l-.2-1.2c-.2-1.2-.7-1.3-3.3-1.3h-1.4c-.7,0-.7,0-.7.8v3.8c0,1.5,0,2.6.5,3.1.4.4.9.7,3.3.7,3.7,0,4.4-.8,5.4-3.2.3-.2.8-.1.9.2-.2,1.2-.8,3.5-1.2,4.3-.7,0-1.6,0-2.8,0-1.2,0-2.7,0-4.5,0h-3.4c-1.3,0-3.1,0-4.4,0-.2-.1-.3-.7,0-.9h1.1c1.4-.3,1.6-.3,1.6-3.5v-11Z" />
	</g>
</symbol>
<symbol id="logo-globalhealth" viewBox="0 0 232.05 79.84">
  <g id="Globe">
    <path fill="#00a5b5" d="M52.6,1.66c-1.71-.42-3.03.49-.9,1.22,4.68,1.61,8.75,4.08,12.31,7.18-.73-.1-1.52-.19-2.38-.28-5.01-.51-7.48.99-10.75,4.82-4.5,5.26-10.84,10.6-7.48,16.65,8.97,16.18,16.65,1.26,27.08,3.66,1.77.41,8.1,2.42,8,6.61-.03.73-.09,1.46-.17,2.19-1.51,13.84-10.02,25.23-21.62,31.01-5.97,2.98-4.63,4.03,1.23,1.64,12.96-5.29,22.69-17.34,24.31-32.23,2.16-19.83-10.79-37.82-29.63-42.49Z"/>
    <path fill="#b29c31" d="M71.69,44.93c0-.07,0-.12,0-.12h0c-.4-2.97-3.46-4.55-7.12-6.18-5.81-2.6-7.84-3.49-11.9-2.67h0s0,0,0,0h0c-6.38,1.17-11.47,5.89-11.39,13.11.06,5.25,7.51,1.91,10.44,6.26,4.53,6.72-2.17,15.58,5.98,15.39,2.43-.06,3.89-.57,4.97-1.46,1.8-1.49,1-6.58,3.32-9.9,4.56-6.55,5.49-4.18,5.78-12.16,0-.14,0-.29,0-.45.01-.67-.02-1.27-.08-1.81Z"/>
    <path fill="#47aa6e" d="M32.88,77.54c-3.61-.55-6.93-1.72-9.95-3.33.88-.73,1.63-1.96,1.94-3.72.8-4.42,4.1-10.06,7.37-13.54,7.48-7.97,6.88-12.05-4.35-17.23-16-7.38-22.76,5.87-13.39,10.55,5.51,2.75,1.49,7.78,3.37,20.62-8.09-6.36-13.24-15.89-15.06-23.5-1.41-5.9-3.61-5.62-2.52-.37,4.04,19.44,18.9,30.81,32.1,32.66,5.3.74,7.01-1.15.49-2.14Z"/>
    <path fill="#f1c319" d="M34.92,1.77c2.74-.4,2.87-2.01-.27-1.74-8.33.72-15.88,4.23-21.91,9.46-5.14,3.72-8.96,9.46-10.57,15.67C-.05,33.66,6.71,42.23,12.89,46.81c8.76,6.49,12.63,1.34,4.59-3.04-2.52-1.37-2.9-7.14-1.36-9.85,3.65-6.41,12.85,4.11,14.57-5.63,1.54-8.71,7.44-12.15,5.19-14.99-3.54-4.47-9.26,1.84-12.25.99-.95-.27-1.57-1.36-2.18-2.59-2.39-4.67,3.11-8.43,13.46-9.93Z"/>
  </g>
  <path fill="var(--logo-text)" d="M119.04,6.83v1h-3.18v1.43h2.82v1h-2.82v1.57h3.33v1h-4.4v-6.01h4.26ZM124.49,11.94c.81,0,1.16-.3,1.27-1.02l1.09.12c-.12,1.16-.82,1.9-2.36,1.9-1.85,0-2.57-1.24-2.57-3.11s.72-3.11,2.57-3.11c1.54,0,2.23.75,2.36,1.9l-1.09.12c-.11-.72-.46-1.02-1.27-1.02-1.23,0-1.47.99-1.47,2.11s.24,2.11,1.47,2.11ZM130.73,9.47l.72-.83,1.65-1.81h1.46l-2.59,2.73,2.7,3.27h-1.43l-1.99-2.5-.52.55v1.96h-1.08v-6.01h1.08v2.64ZM141.94,12.83h-1.08v-6.01h1.08v6.01ZM146.72,9.74l-.59-.92.02,1.44v2.58h-1.08v-6.01h.99l2.07,3.1.59.92-.02-1.44v-2.58h1.08v6.01h-.99l-2.07-3.1ZM152.6,11.1l1.09-.12c.08.7.52.95,1.33.95.6,0,1.28-.23,1.28-.89,0-.52-.32-.75-1.31-.84-1.1-.09-2.18-.38-2.19-1.66,0-1.26,1-1.82,2.16-1.82,1.57,0,2.29.69,2.39,1.83l-1.09.12c-.08-.71-.49-.95-1.3-.95-.41,0-1.09.15-1.09.83,0,.42.24.59,1.16.69,1.47.13,2.32.4,2.33,1.81,0,1.34-1.16,1.89-2.35,1.89-1.62,0-2.3-.65-2.43-1.84ZM162.63,12.83h-1.08v-5h-1.75v-1h4.57v1h-1.75v5ZM168.18,12.83h-1.08v-6.01h1.08v6.01ZM173.72,12.83h-1.08v-5h-1.75v-1h4.57v1h-1.75v5ZM178.01,10.64v-3.81h1.08v3.81c0,.73.23,1.3,1.37,1.3s1.37-.57,1.37-1.3v-3.81h1.08v3.81c0,1.31-.58,2.3-2.45,2.3s-2.45-.99-2.45-2.3ZM188.28,12.83h-1.08v-5h-1.75v-1h4.57v1h-1.75v5ZM196.9,6.83v1h-3.18v1.43h2.82v1h-2.82v1.57h3.33v1h-4.4v-6.01h4.26ZM204.56,12.83h-1.08v-6.01h4.1v1h-3.03v1.43h2.66v1h-2.66v2.57ZM210.12,9.83c0-1.89.79-3.11,2.69-3.11s2.69,1.22,2.69,3.11-.79,3.11-2.69,3.11-2.69-1.22-2.69-3.11ZM211.22,9.83c0,1.14.32,2.11,1.6,2.11s1.59-.97,1.59-2.11-.31-2.11-1.59-2.11-1.6.97-1.6,2.11ZM219.45,12.83h-1.08v-6.01h2.48c1.04,0,2.04.35,2.04,1.82,0,1.06-.52,1.53-1.19,1.71l1.46,2.47h-1.26l-1.35-2.36h-1.1v2.36ZM220.92,9.47c.38,0,.87-.07.87-.82s-.49-.82-.87-.82h-1.47v1.64h1.47ZM103.89,34.51c0-6.1,2.79-10.2,9.24-10.2,5.37,0,8.51,2.46,8.56,6.56l-4.72.58c-.05-2.24-1.53-2.99-3.84-2.99-3.62,0-4.55,2.89-4.55,6.05s.93,5.98,4.55,6.05c2.13.05,2.99-.2,3.79-.53v-3.19h-4.02v-3.77h8.64v9.62c-2.91,1.73-5.42,2.03-8.44,2.01-6.43-.05-9.22-4.07-9.22-10.2ZM133.73,40.16h8.92v4.14h-13.56v-19.59h4.65v15.45ZM146.96,34.51c0-6.1,2.64-10.2,9.24-10.2s9.24,4.09,9.24,10.2-2.64,10.2-9.24,10.2-9.24-4.09-9.24-10.2ZM151.66,34.51c0,3.16.83,6.05,4.55,6.05s4.55-2.89,4.55-6.05-.83-6.05-4.55-6.05-4.55,2.89-4.55,6.05ZM171.93,44.3v-19.59h8.84c2.74,0,6.4.65,6.4,5.42,0,1.73-.63,3.16-1.68,3.84,1.58.48,2.34,2.41,2.34,4.44,0,4.95-3.32,5.88-6.91,5.88h-8.99ZM176.58,28.86v3.37h3.94c1.18,0,1.93-.33,1.93-1.73s-.73-1.63-1.93-1.63h-3.94ZM180.72,40.16c.95,0,2.39-.1,2.39-1.83s-1.23-1.96-2.29-1.96h-4.24v3.79h4.14ZM206.14,40.96h-7.18l-1.03,3.34h-4.97l6.86-19.84h5.48l6.86,19.84h-4.97l-1.03-3.34ZM200.11,37.2h4.85l-1.83-5.95-.58-1.98-.58,1.98-1.86,5.95ZM223.13,40.16h8.92v4.14h-13.56v-19.59h4.65v15.45ZM121.7,53.38v19.59h-4.65v-7.94h-6.88v7.94h-4.65v-19.59h4.65v7.51h6.88v-7.51h4.65ZM144.8,53.38v4.14h-9.57v3.37h8.21v4.14h-8.21v3.79h10.07v4.14h-14.72v-19.59h14.22ZM164.69,69.63h-7.18l-1.03,3.34h-4.97l6.86-19.84h5.48l6.86,19.84h-4.97l-1.03-3.34ZM158.66,65.86h4.85l-1.83-5.95-.58-1.98-.58,1.98-1.86,5.95ZM182.09,68.83h8.92v4.14h-13.56v-19.59h4.65v15.45ZM203.89,72.97h-4.65v-15.45h-5.37v-4.14h15.4v4.14h-5.37v15.45ZM232.05,53.38v19.59h-4.65v-7.94h-6.88v7.94h-4.65v-19.59h4.65v7.51h6.88v-7.51h4.65Z"/>
</symbol>
</defs>
</svg>